<svg xmlns="http://www.w3.org/2000/svg" xmlns:xlink="http://www.w3.org/1999/xlink" contentStyleType="text/css" data-diagram-type="DESCRIPTION" height="379px" preserveAspectRatio="none" style="width:1094px;height:379px;background:#FFFFFF;" version="1.1" viewBox="0 0 1094 379" width="1094px" zoomAndPan="magnify"><defs/><g><!--cluster Protopipe Frontend Platform--><g class="cluster" data-entity="Protopipe Frontend Platform" data-source-line="3" data-uid="ent0002" id="cluster_Protopipe Frontend Platform"><path d="M8.5,157.3 L237.3076,157.3 A3.75,3.75 0 0 1 239.8076,159.8 L246.8076,179.5969 L981.5,179.5969 A2.5,2.5 0 0 1 984,182.0969 L984,370.39 A2.5,2.5 0 0 1 981.5,372.89 L8.5,372.89 A2.5,2.5 0 0 1 6,370.39 L6,159.8 A2.5,2.5 0 0 1 8.5,157.3" fill="none" style="stroke:#000000;stroke-width:1.5;"/><line style="stroke:#000000;stroke-width:1.5;" x1="6" x2="246.8076" y1="179.5969" y2="179.5969"/><text fill="#000000" font-family="sans-serif" font-size="14" font-weight="bold" lengthAdjust="spacing" textLength="227.8076" x="10" y="172.2951">Protopipe Frontend Platform</text></g><!--cluster Teams--><g class="cluster" data-entity="Teams" data-source-line="14" data-uid="ent0011" id="cluster_Teams"><path d="M634.5,6 L686.9131,6 A3.75,3.75 0 0 1 689.4131,8.5 L696.4131,28.2969 L1084.5,28.2969 A2.5,2.5 0 0 1 1087,30.7969 L1087,90.8 A2.5,2.5 0 0 1 1084.5,93.3 L634.5,93.3 A2.5,2.5 0 0 1 632,90.8 L632,8.5 A2.5,2.5 0 0 1 634.5,6" fill="none" style="stroke:#000000;stroke-width:1.5;"/><line style="stroke:#000000;stroke-width:1.5;" x1="632" x2="696.4131" y1="28.2969" y2="28.2969"/><text fill="#000000" font-family="sans-serif" font-size="14" font-weight="bold" lengthAdjust="spacing" textLength="51.4131" x="636" y="20.9951">Teams</text></g><!--entity Page--><g class="entity" data-entity="Page" data-source-line="4" data-uid="ent0003" id="entity_Page"><rect fill="#F1F1F1" height="36.2969" rx="2.5" ry="2.5" style="stroke:#181818;stroke-width:0.5;" width="124.1113" x="226.94" y="320.59"/><text fill="#000000" font-family="sans-serif" font-size="14" lengthAdjust="spacing" textLength="104.1113" x="236.94" y="343.5851">Page Resource</text></g><!--entity Exp--><g class="entity" data-entity="Exp" data-source-line="5" data-uid="ent0004" id="entity_Exp"><rect fill="#F1F1F1" height="36.2969" rx="2.5" ry="2.5" style="stroke:#181818;stroke-width:0.5;" width="170.4795" x="21.76" y="320.59"/><text fill="#000000" font-family="sans-serif" font-size="14" lengthAdjust="spacing" textLength="150.4795" x="31.76" y="343.5851">Experiment Resource</text></g><!--entity Op--><g class="entity" data-entity="Op" data-source-line="6" data-uid="ent0005" id="entity_Op"><rect fill="#F1F1F1" height="36.2969" rx="2.5" ry="2.5" style="stroke:#181818;stroke-width:0.5;" width="82.665" x="129.67" y="192.3"/><text fill="#000000" font-family="sans-serif" font-size="14" lengthAdjust="spacing" textLength="62.665" x="139.67" y="215.2951">Operator</text></g><!--entity Comp--><g class="entity" data-entity="Comp" data-source-line="7" data-uid="ent0006" id="entity_Comp"><rect fill="#F1F1F1" height="36.2969" rx="2.5" ry="2.5" style="stroke:#181818;stroke-width:0.5;" width="91.0938" x="443.45" y="192.3"/><text fill="#000000" font-family="sans-serif" font-size="14" lengthAdjust="spacing" textLength="71.0938" x="453.45" y="215.2951">Composer</text></g><!--entity Reg--><g class="entity" data-entity="Reg" data-source-line="8" data-uid="ent0007" id="entity_Reg"><rect fill="#F1F1F1" height="36.2969" rx="2.5" ry="2.5" style="stroke:#181818;stroke-width:0.5;" width="109.749" x="696.13" y="320.59"/><text fill="#000000" font-family="sans-serif" font-size="14" lengthAdjust="spacing" textLength="89.749" x="706.13" y="343.5851">RFA Registry</text></g><!--entity SB--><g class="entity" data-entity="SB" data-source-line="9" data-uid="ent0008" id="entity_SB"><rect fill="#F1F1F1" height="36.2969" rx="2.5" ry="2.5" style="stroke:#181818;stroke-width:0.5;" width="123.8447" x="591.08" y="192.3"/><text fill="#000000" font-family="sans-serif" font-size="14" lengthAdjust="spacing" textLength="103.8447" x="601.08" y="215.2951">Storybook Hub</text></g><!--entity CDCT--><g class="entity" data-entity="CDCT" data-source-line="10" data-uid="ent0009" id="entity_CDCT"><rect fill="#F1F1F1" height="36.2969" rx="2.5" ry="2.5" style="stroke:#181818;stroke-width:0.5;" width="118.4307" x="782.78" y="192.3"/><text fill="#000000" font-family="sans-serif" font-size="14" lengthAdjust="spacing" textLength="98.4307" x="792.78" y="215.2951">CDCT Pipeline</text></g><!--entity OW--><g class="entity" data-entity="OW" data-source-line="11" data-uid="ent0010" id="entity_OW"><rect fill="#F1F1F1" height="36.2969" rx="2.5" ry="2.5" style="stroke:#181818;stroke-width:0.5;" width="95.7627" x="430.12" y="320.59"/><text fill="#000000" font-family="sans-serif" font-size="14" lengthAdjust="spacing" textLength="75.7627" x="440.12" y="343.5851">Overwatch</text></g><!--entity Team--><g class="entity" data-entity="Team" data-source-line="15" data-uid="ent0012" id="entity_Team"><rect fill="#F1F1F1" height="36.2969" rx="2.5" ry="2.5" style="stroke:#181818;stroke-width:0.5;" width="213.9561" x="648.02" y="41"/><text fill="#000000" font-family="sans-serif" font-size="14" lengthAdjust="spacing" textLength="193.9561" x="658.02" y="63.9951">Fragment/RFA Owner Team</text></g><!--entity BETeam--><g class="entity" data-entity="BETeam" data-source-line="16" data-uid="ent0013" id="entity_BETeam"><rect fill="#F1F1F1" height="36.2969" rx="2.5" ry="2.5" style="stroke:#181818;stroke-width:0.5;" width="174.3555" x="896.82" y="41"/><text fill="#000000" font-family="sans-serif" font-size="14" lengthAdjust="spacing" textLength="154.3555" x="906.82" y="63.9951">Backend Owner Team</text></g><!--link Team to SB--><g class="link" data-entity-1="Team" data-entity-2="SB" data-source-line="19" data-uid="lnk14" id="link_Team_SB"><path d="M684.91,77.72 C669.56,84.94 655.18,95.09 646,109.3 C629.83,134.33 636.3968,164.9372 643.8668,186.2672" fill="none" id="Team-to-SB" style="stroke:#181818;stroke-width:1;"/><polygon fill="#181818" points="645.85,191.93,646.6504,182.1137,644.1974,187.211,639.1001,184.7579,645.85,191.93" style="stroke:#181818;stroke-width:1;"/><text fill="#000000" font-family="sans-serif" font-size="13" lengthAdjust="spacing" textLength="136.208" x="647" y="122.3669">develop components</text><text fill="#000000" font-family="sans-serif" font-size="13" lengthAdjust="spacing" textLength="104.5269" x="662.8406" y="137.4997">(Atomic Design)</text></g><!--link Team to CDCT--><g class="link" data-entity-1="Team" data-entity-2="CDCT" data-source-line="20" data-uid="lnk15" id="link_Team_CDCT"><path d="M769.52,77.8 C776.7,86.92 785.26,98.4 792,109.3 C809.18,137.06 822.9112,166.028 831.9912,186.438" fill="none" id="Team-to-CDCT" style="stroke:#181818;stroke-width:1;"/><polygon fill="#181818" points="834.43,191.92,834.4264,182.0711,832.3976,187.3517,827.1171,185.3229,834.43,191.92" style="stroke:#181818;stroke-width:1;"/><text fill="#000000" font-family="sans-serif" font-size="13" lengthAdjust="spacing" textLength="111.8774" x="809.71" y="122.3669">publish contracts</text><text fill="#000000" font-family="sans-serif" font-size="13" lengthAdjust="spacing" textLength="109.5542" x="810.8716" y="137.4997">&amp; verified mocks</text></g><!--link CDCT to Reg--><g class="link" data-entity-1="CDCT" data-entity-2="Reg" data-source-line="21" data-uid="lnk16" id="link_CDCT_Reg"><path d="M835.64,228.86 C829.01,245.65 817.57,271.27 803,290.59 C794.78,301.49 788.385,308.0098 778.635,316.2398" fill="none" id="CDCT-to-Reg" style="stroke:#181818;stroke-width:1;"/><polygon fill="#181818" points="774.05,320.11,783.5075,317.3614,777.8708,316.8849,778.3473,311.2481,774.05,320.11" style="stroke:#181818;stroke-width:1;"/><text fill="#000000" font-family="sans-serif" font-size="13" lengthAdjust="spacing" textLength="76.5146" x="847.0373" y="271.6569">publish RFA</text><text fill="#000000" font-family="sans-serif" font-size="13" lengthAdjust="spacing" textLength="124.9092" x="822.84" y="286.7897">snapshots/releases</text></g><!--link Op to Page--><g class="link" data-entity-1="Op" data-entity-2="Page" data-source-line="22" data-uid="lnk17" id="link_Op_Page"><path d="M201.8,229.04 C214.23,237.06 228.17,247.29 239,258.59 C256.88,277.25 269.0955,297.9345 277.8555,314.9645" fill="none" id="Op-to-Page" style="stroke:#181818;stroke-width:1;"/><polygon fill="#181818" points="280.6,320.3,280.0402,310.4671,278.3129,315.8537,272.9262,314.1264,280.6,320.3" style="stroke:#181818;stroke-width:1;"/><text fill="#000000" font-family="sans-serif" font-size="13" lengthAdjust="spacing" textLength="158.8882" x="263.49" y="271.6569">resolves effective config</text><text fill="#000000" font-family="sans-serif" font-size="13" lengthAdjust="spacing" textLength="59.6616" x="313.1033" y="286.7897">-&gt; status</text></g><!--link Op to Exp--><g class="link" data-entity-1="Op" data-entity-2="Exp" data-source-line="23" data-uid="lnk18" id="link_Op_Exp"><path d="M129.25,216.48 C102.88,222.06 70.73,233.82 54,258.59 C46.04,270.38 48.18,277.62 54,290.59 C59.29,302.39 64.4561,308.7153 74.2561,316.4753" fill="none" id="Op-to-Exp" style="stroke:#181818;stroke-width:1;"/><polygon fill="#181818" points="78.96,320.2,74.3873,311.477,75.0401,317.0961,69.421,317.7489,78.96,320.2" style="stroke:#181818;stroke-width:1;"/><text fill="#000000" font-family="sans-serif" font-size="13" lengthAdjust="spacing" textLength="179.1563" x="55" y="279.1569">reconcile experiment specs</text></g><!--link Comp to Reg--><g class="link" data-entity-1="Comp" data-entity-2="Reg" data-source-line="24" data-uid="lnk19" id="link_Comp_Reg"><path d="M534.99,222.29 C561.71,229.88 595.28,241.72 622,258.59 C639.01,269.33 637.62,278.92 654,290.59 C670.32,302.22 684.4775,309.8779 701.7975,317.7479" fill="none" id="Comp-to-Reg" style="stroke:#181818;stroke-width:1;"/><polygon fill="#181818" points="707.26,320.23,700.721,312.8652,702.7079,318.1616,697.4115,320.1485,707.26,320.23" style="stroke:#181818;stroke-width:1;"/><text fill="#000000" font-family="sans-serif" font-size="13" lengthAdjust="spacing" textLength="139.2041" x="655" y="279.1569">fetch RFAs/templates</text></g><!--link Comp to OW--><g class="link" data-entity-1="Comp" data-entity-2="OW" data-source-line="25" data-uid="lnk20" id="link_Comp_OW"><path d="M482.44,229.08 C479.54,237.83 476.45,248.62 475,258.59 C471.93,279.69 472.9914,298.2896 474.8514,314.3896" fill="none" id="Comp-to-OW" style="stroke:#181818;stroke-width:1;"/><polygon fill="#181818" points="475.54,320.35,478.4807,310.9504,474.9662,315.383,470.5335,311.8685,475.54,320.35" style="stroke:#181818;stroke-width:1;"/><text fill="#000000" font-family="sans-serif" font-size="13" lengthAdjust="spacing" textLength="141.521" x="476" y="279.1569">traces/events/metrics</text></g><!--link BETeam to CDCT--><g class="link" data-entity-1="BETeam" data-entity-2="CDCT" data-source-line="26" data-uid="lnk21" id="link_BETeam_CDCT"><path d="M974.51,77.79 C964.72,95.07 948.33,121.6 930,141.3 C911.83,160.82 892.6176,175.6812 874.2076,188.3912" fill="none" id="BETeam-to-CDCT" style="stroke:#181818;stroke-width:1;"/><polygon fill="#181818" points="869.27,191.8,878.9489,189.9785,873.3847,188.9593,874.4038,183.395,869.27,191.8" style="stroke:#181818;stroke-width:1;"/><text fill="#000000" font-family="sans-serif" font-size="13" lengthAdjust="spacing" textLength="120.2817" x="955.68" y="122.3669">backend contracts</text><text fill="#000000" font-family="sans-serif" font-size="13" lengthAdjust="spacing" textLength="62.8291" x="984.4063" y="137.4997">(optional)</text></g><!--SRC=[NL8zJmCn3DtlLrWC20PqUmSa2bHiLxL839GXJNtNgFbIx1Ogn7_7JX4zcExo_5xy_1pQkPXDCG5i2Zb5ZBpaeqSeQDd4mMFJP6DtPa2uc9V4ARkCC2ifCiODpBtXFfLm0PyDmEjSUGkaj2yMty0GAAALnu-CnGMv_szTS2rtKZMSIiMw2jsh8S8Jf0S55xCxqG-Ek1nhGGwABqLxNAUqWwVzkXQMqth9m_qppCMoT_7KK97QyO3btR3Tdbg-D5-ZIP_H1FgPQLRCeBvRxTszHooWvIhJ7-LCHQXn_2jF7oj1RjOltDpSYYsOm0OFw5C-PqwhU7N7AJWB3qXkYDTdHHrX0dc_zewseebSZ5N99SWChdUuWP3iZffALOsaCfA8yLMaQ39j4rDRqACXfARBbLoNDf6DK_879C2-b-Mx0sgltWshA2HYm_jVYMojAeHWdRmMF6-NCbfn8fEDdFGeGQiFQXb3baU38qxt8XGT2gcLP2IEDY0N9_US4XpdiFw9UfJ3LShiKZJ- -Xi0]--></g></svg>