<svg xmlns="http://www.w3.org/2000/svg" xmlns:xlink="http://www.w3.org/1999/xlink" contentStyleType="text/css" data-diagram-type="DESCRIPTION" height="756px" preserveAspectRatio="none" style="width:966px;height:756px;background:#FFFFFF;" version="1.1" viewBox="0 0 966 756" width="966px" zoomAndPan="magnify"><defs/><g><!--cluster Kubernetes Cluster--><g class="cluster" data-entity="Kubernetes Cluster" data-source-line="8" data-uid="ent0006" id="cluster_Kubernetes Cluster"><polygon fill="none" points="53.96,330.69,63.96,320.69,949.96,320.69,949.96,729.32,939.96,739.32,53.96,739.32,53.96,330.69" style="stroke:#181818;stroke-width:1;"/><line style="stroke:#181818;stroke-width:1;" x1="939.96" x2="949.96" y1="330.69" y2="320.69"/><line style="stroke:#181818;stroke-width:1;" x1="53.96" x2="939.96" y1="330.69" y2="330.69"/><line style="stroke:#181818;stroke-width:1;" x1="939.96" x2="939.96" y1="330.69" y2="739.32"/><text fill="#000000" font-family="sans-serif" font-size="14" font-weight="bold" lengthAdjust="spacing" textLength="152.5576" x="421.6812" y="346.6851">Kubernetes Cluster</text></g><!--entity Operator--><g class="entity" data-entity="Operator" data-source-line="9" data-uid="ent0007" id="entity_Operator"><rect fill="#F1F1F1" height="52.5938" rx="2.5" ry="2.5" style="stroke:#181818;stroke-width:0.5;" width="195.3623" x="288.27" y="360.69"/><text fill="#000000" font-family="sans-serif" font-size="14" lengthAdjust="spacing" textLength="134.21" x="298.27" y="383.6851">Protopipe Operator</text><text fill="#000000" font-family="sans-serif" font-size="14" lengthAdjust="spacing" textLength="175.3623" x="298.27" y="399.982">(CRD -&gt; Runtime Config)</text></g><!--entity Composer--><g class="entity" data-entity="Composer" data-source-line="10" data-uid="ent0008" id="entity_Composer"><rect fill="#F1F1F1" height="52.5938" rx="2.5" ry="2.5" style="stroke:#181818;stroke-width:0.5;" width="205.459" x="283.23" y="517.13"/><text fill="#000000" font-family="sans-serif" font-size="14" lengthAdjust="spacing" textLength="163.9873" x="293.23" y="540.1251">Protopipe FE Composer</text><text fill="#000000" font-family="sans-serif" font-size="14" lengthAdjust="spacing" textLength="185.459" x="293.23" y="556.422">(Page SSR + Composition)</text></g><!--entity Bridge--><g class="entity" data-entity="Bridge" data-source-line="11" data-uid="ent0009" id="entity_Bridge"><rect fill="#F1F1F1" height="52.5938" rx="2.5" ry="2.5" style="stroke:#181818;stroke-width:0.5;" width="157.1836" x="70.36" y="666.23"/><text fill="#000000" font-family="sans-serif" font-size="14" lengthAdjust="spacing" textLength="111.4463" x="80.36" y="689.2251">Message Bridge</text><text fill="#000000" font-family="sans-serif" font-size="14" lengthAdjust="spacing" textLength="137.1836" x="80.36" y="705.522">(/messages polling)</text></g><!--entity Overwatch--><g class="entity" data-entity="Overwatch" data-source-line="12" data-uid="ent0010" id="entity_Overwatch"><rect fill="#F1F1F1" height="52.5938" rx="2.5" ry="2.5" style="stroke:#181818;stroke-width:0.5;" width="247.5684" x="262.17" y="666.23"/><text fill="#000000" font-family="sans-serif" font-size="14" lengthAdjust="spacing" textLength="75.7627" x="272.17" y="689.2251">Overwatch</text><text fill="#000000" font-family="sans-serif" font-size="14" lengthAdjust="spacing" textLength="227.5684" x="272.17" y="705.522">(OTel Collector + Event Archive)</text></g><!--entity BE--><g class="entity" data-entity="BE" data-source-line="14" data-uid="ent0011" id="entity_BE"><rect fill="#F1F1F1" height="52.5938" rx="2.5" ry="2.5" style="stroke:#181818;stroke-width:0.5;" width="143.8467" x="545.03" y="666.23"/><text fill="#000000" font-family="sans-serif" font-size="14" lengthAdjust="spacing" textLength="123.8467" x="555.03" y="689.2251">Backend Services</text><text fill="#000000" font-family="sans-serif" font-size="14" lengthAdjust="spacing" textLength="99.1416" x="555.03" y="705.522">(Domain APIs)</text></g><!--entity Store--><g class="entity" data-entity="Store" data-source-line="15" data-uid="ent0012" id="entity_Store"><path d="M723.46,671.73 C723.46,661.73 828.958,661.73 828.958,661.73 C828.958,661.73 934.4561,661.73 934.4561,671.73 L934.4561,713.3238 C934.4561,723.3238 828.958,723.3238 828.958,723.3238 C828.958,723.3238 723.46,723.3238 723.46,713.3238 L723.46,671.73" fill="#F1F1F1" style="stroke:#181818;stroke-width:0.5;"/><path d="M723.46,671.73 C723.46,681.73 828.958,681.73 828.958,681.73 C828.958,681.73 934.4561,681.73 934.4561,671.73" fill="none" style="stroke:#181818;stroke-width:0.5;"/><text fill="#000000" font-family="sans-serif" font-size="14" lengthAdjust="spacing" textLength="190.9961" x="733.46" y="698.7251">Shared Session/State Store</text><text fill="#000000" font-family="sans-serif" font-size="14" lengthAdjust="spacing" textLength="76.0361" x="733.46" y="715.022">(clustered)</text></g><!--entity User--><g class="entity" data-entity="User" data-source-line="3" data-uid="ent0002" id="entity_User"><ellipse cx="21.9551" cy="357.34" fill="#F1F1F1" rx="8" ry="8" style="stroke:#181818;stroke-width:0.5;"/><path d="M21.9551,365.34 L21.9551,392.34 M8.9551,373.34 L34.9551,373.34 M21.9551,392.34 L8.9551,407.34 M21.9551,392.34 L34.9551,407.34" fill="none" style="stroke:#181818;stroke-width:0.5;"/><text fill="#000000" font-family="sans-serif" font-size="14" lengthAdjust="spacing" textLength="31.9102" x="6" y="421.8351">User</text></g><!--entity PM--><g class="entity" data-entity="PM" data-source-line="4" data-uid="ent0003" id="entity_PM"><ellipse cx="256.9512" cy="14" fill="#F1F1F1" rx="8" ry="8" style="stroke:#181818;stroke-width:0.5;"/><path d="M256.9512,22 L256.9512,49 M243.9512,30 L269.9512,30 M256.9512,49 L243.9512,64 M256.9512,49 L269.9512,64" fill="none" style="stroke:#181818;stroke-width:0.5;"/><text fill="#000000" font-family="sans-serif" font-size="14" lengthAdjust="spacing" textLength="126.3623" x="193.77" y="78.4951">Management / PM</text></g><!--entity Cockpit--><g class="entity" data-entity="Cockpit" data-source-line="5" data-uid="ent0004" id="entity_Cockpit"><rect fill="#F1F1F1" height="52.5938" rx="2.5" ry="2.5" style="stroke:#181818;stroke-width:0.5;" width="250.6582" x="131.63" y="181.94"/><text fill="#000000" font-family="sans-serif" font-size="14" lengthAdjust="spacing" textLength="123.9561" x="141.63" y="204.9351">Protopipe Cockpit</text><text fill="#000000" font-family="sans-serif" font-size="14" lengthAdjust="spacing" textLength="230.6582" x="141.63" y="221.232">(Experiments, KPIs, Governance)</text></g><!--entity GitLab--><g class="entity" data-entity="GitLab" data-source-line="6" data-uid="ent0005" id="entity_GitLab"><rect fill="#F1F1F1" height="68.8906" rx="2.5" ry="2.5" style="stroke:#181818;stroke-width:0.5;" width="184.6094" x="417.65" y="173.8"/><text fill="#000000" font-family="sans-serif" font-size="14" lengthAdjust="spacing" textLength="89.1201" x="427.65" y="196.7951">GitLab CI/CD</text><text fill="#000000" font-family="sans-serif" font-size="14" lengthAdjust="spacing" textLength="164.6094" x="427.65" y="213.092">(Feature Branch Builds,</text><text fill="#000000" font-family="sans-serif" font-size="14" lengthAdjust="spacing" textLength="78.2031" x="427.65" y="229.3889">Snapshots)</text></g><!--link User to Composer--><g class="link" data-entity-1="User" data-entity-2="Composer" data-source-line="18" data-uid="lnk13" id="link_User_Composer"><path d="M38.22,410.68 C42.84,415.97 48.19,421.19 53.96,425.13 C123.34,472.57 208.162,501.3842 277.202,519.2842" fill="none" id="User-to-Composer" style="stroke:#181818;stroke-width:1;"/><polygon fill="#181818" points="283.01,520.79,275.3019,514.6593,278.17,519.5351,273.2942,522.4032,283.01,520.79" style="stroke:#181818;stroke-width:1;"/><text fill="#000000" font-family="sans-serif" font-size="13" lengthAdjust="spacing" textLength="51.8921" x="193.563" y="468.1969">HTTP(S)</text><text fill="#000000" font-family="sans-serif" font-size="13" lengthAdjust="spacing" textLength="89.5781" x="174.72" y="483.3297">Page Request</text></g><!--link Composer to BE--><g class="link" data-entity-1="Composer" data-entity-2="BE" data-source-line="19" data-uid="lnk14" id="link_Composer_BE"><path d="M475.83,570.17 C495.87,578 516.37,587.78 533.96,599.73 C560.26,617.59 580.2904,640.6797 595.5504,661.0297" fill="none" id="Composer-to-BE" style="stroke:#181818;stroke-width:1;"/><polygon fill="#181818" points="599.15,665.83,596.9508,656.2298,596.1503,661.8298,590.5504,661.0293,599.15,665.83" style="stroke:#181818;stroke-width:1;"/><text fill="#000000" font-family="sans-serif" font-size="13" lengthAdjust="spacing" textLength="81.6055" x="620.076" y="612.7969">parallel calls</text><text fill="#000000" font-family="sans-serif" font-size="13" lengthAdjust="spacing" textLength="180.4575" x="570.65" y="627.9297">(GET/forwardBody optional)</text></g><!--link Composer to Bridge--><g class="link" data-entity-1="Composer" data-entity-2="Bridge" data-source-line="20" data-uid="lnk15" id="link_Composer_Bridge"><path d="M329.1,570.12 C311.1,578.87 291.38,589.14 273.96,599.73 C240.82,619.86 210.1279,642.6831 185.4879,662.0431" fill="none" id="Composer-to-Bridge" style="stroke:#181818;stroke-width:1;"/><polygon fill="#181818" points="180.77,665.75,190.3182,663.3349,184.7016,662.6609,185.3756,657.0443,180.77,665.75" style="stroke:#181818;stroke-width:1;"/><text fill="#000000" font-family="sans-serif" font-size="13" lengthAdjust="spacing" textLength="97.1382" x="277.7244" y="612.7969">poll /messages</text><text fill="#000000" font-family="sans-serif" font-size="13" lengthAdjust="spacing" textLength="102.667" x="274.96" y="627.9297">(optional client)</text></g><!--link Composer to Overwatch--><g class="link" data-entity-1="Composer" data-entity-2="Overwatch" data-source-line="21" data-uid="lnk16" id="link_Composer_Overwatch"><path d="M385.96,570.05 C385.96,597.05 385.96,633.31 385.96,660.19" fill="none" id="Composer-to-Overwatch" style="stroke:#181818;stroke-width:1;"/><polygon fill="#181818" points="385.96,666.19,389.96,657.19,385.96,661.19,381.96,657.19,385.96,666.19" style="stroke:#181818;stroke-width:1;"/><text fill="#000000" font-family="sans-serif" font-size="13" lengthAdjust="spacing" textLength="141.521" x="386.96" y="620.2969">traces/events/metrics</text></g><!--link Composer to Store--><g class="link" data-entity-1="Composer" data-entity-2="Store" data-source-line="22" data-uid="lnk17" id="link_Composer_Store"><path d="M489.09,551.14 C583.01,558.79 713.59,573.73 757.96,599.73 C782.47,614.09 798.4811,635.3007 810.6511,656.1107" fill="none" id="Composer-to-Store" style="stroke:#181818;stroke-width:1;"/><polygon fill="#181818" points="813.68,661.29,812.5895,651.5017,811.1559,656.9739,805.6837,655.5403,813.68,661.29" style="stroke:#181818;stroke-width:1;"/><text fill="#000000" font-family="sans-serif" font-size="13" lengthAdjust="spacing" textLength="133.104" x="793.92" y="612.7969">session/state lookup</text><text fill="#000000" font-family="sans-serif" font-size="13" lengthAdjust="spacing" textLength="62.8291" x="829.0575" y="627.9297">(optional)</text></g><!--link PM to Cockpit--><g class="link" data-entity-1="PM" data-entity-2="Cockpit" data-source-line="23" data-uid="lnk18" id="link_PM_Cockpit"><path d="M256.96,81.95 C256.96,112.51 256.96,148.95 256.96,175.75" fill="none" id="PM-to-Cockpit" style="stroke:#181818;stroke-width:1;"/><polygon fill="#181818" points="256.96,181.75,260.96,172.75,256.96,176.75,252.96,172.75,256.96,181.75" style="stroke:#181818;stroke-width:1;"/><text fill="#000000" font-family="sans-serif" font-size="13" lengthAdjust="spacing" textLength="172.0215" x="257.96" y="124.8669">define/toggle experiments</text><text fill="#000000" font-family="sans-serif" font-size="13" lengthAdjust="spacing" textLength="61.0391" x="313.4512" y="139.9997">view KPIs</text></g><!--link Cockpit to Operator--><g class="link" data-entity-1="Cockpit" data-entity-2="Operator" data-source-line="24" data-uid="lnk19" id="link_Cockpit_Operator"><path d="M250.9,234.84 C247.54,255.09 246.11,283.4 257.96,304.69 C271.59,329.19 290.7491,344.5218 314.6491,357.4118" fill="none" id="Cockpit-to-Operator" style="stroke:#181818;stroke-width:1;"/><polygon fill="#181818" points="319.93,360.26,313.9074,352.4672,315.5292,357.8865,310.1099,359.5084,319.93,360.26" style="stroke:#181818;stroke-width:1;"/><text fill="#000000" font-family="sans-serif" font-size="13" lengthAdjust="spacing" textLength="203.2329" x="258.96" y="293.2569">create/update Experiment CRD</text></g><!--link GitLab to Operator--><g class="link" data-entity-1="GitLab" data-entity-2="Operator" data-source-line="25" data-uid="lnk20" id="link_GitLab_Operator"><path d="M500.13,242.76 C493.6,261.89 483.85,285.75 470.96,304.69 C456.59,325.79 440.55,341.7605 423.22,356.5805" fill="none" id="GitLab-to-Operator" style="stroke:#181818;stroke-width:1;"/><polygon fill="#181818" points="418.66,360.48,428.0997,357.6707,422.46,357.2304,422.9003,351.5907,418.66,360.48" style="stroke:#181818;stroke-width:1;"/><text fill="#000000" font-family="sans-serif" font-size="13" lengthAdjust="spacing" textLength="117.1777" x="488.34" y="285.7569">publish snapshots</text><text fill="#000000" font-family="sans-serif" font-size="13" lengthAdjust="spacing" textLength="111.1982" x="491.3297" y="300.8897">(artifact registry)</text></g><!--link Operator to Composer--><g class="link" data-entity-1="Operator" data-entity-2="Composer" data-source-line="26" data-uid="lnk21" id="link_Operator_Composer"><path d="M385.96,413.49 C385.96,442.1 385.96,482.26 385.96,510.89" fill="none" id="Operator-to-Composer" style="stroke:#181818;stroke-width:1;"/><polygon fill="#181818" points="385.96,516.89,389.96,507.89,385.96,511.89,381.96,507.89,385.96,516.89" style="stroke:#181818;stroke-width:1;"/><text fill="#000000" font-family="sans-serif" font-size="13" lengthAdjust="spacing" textLength="150.6553" x="386.96" y="468.1969">resolved routing/config</text><text fill="#000000" font-family="sans-serif" font-size="13" lengthAdjust="spacing" textLength="111.1665" x="406.7044" y="483.3297">(status/effective)</text></g><!--SRC=[TLDDRzf04BtlhnXn2aeYttke50YXKOf0cDwuBEknlMBPTNVNfAZgV-zRsv20sWj6zlkOUJCJzjesqii3ANTed6KRytWoJ9vLbBOoB8HKqNdw4TWFVqSBQMN51u0fezLYH3BW8IuS6gsyYwxH3TFKgNsZuzRUpNurx7LYXGTwMxtYT-wExAsqYiUTo03-h3JNyRlSqVGrcpv3v8LbR3tJn8DLqwJLfWWFMvjRsOJQnT0BzImXh2kWyTRkOCEHuM3Q4DcFwBSW-cV1IrGfqIRCfkjdUlnAwzP6r8tgRAchtk2C-f_Aomnm98hK8BH2N9JdQxeVtkgedJtttCEkbHOSGY9Dl2ugXaHswDy4QfmnsWvrzD-lkKk4-YwZga5RRjZ0mXZkHdTFisCQsvDNjJuEgL_mubfd8jMURK4v-wDM723tx0vIMth2z0R_6JY5Z78d0oXvBJqdHWXeCCkZZ6WSpga5rMVFHK_jNei_GgJLeaS4VOw2lj2tpMPrbu-tjejkpJzR3b5S00azcG6NbXVD6L9uf0hdiqrMElJZYuahJkIQ5BKqunjobriIG3Pq2HS2Pm8fen7L3U-I5QZHIwIISKeqG29whS8rlEiHq3044hf0Z7FxjldaDHQhnP10Tm1W55ngorbqLPe5VzpErXurltS79Cxmhh9X8y5L7bV2MTiKoUtZxWWBBOQ3kg4qxSxeK5Cutn6gapxg4YUFdQXqYFuq5XV6pRWy1sUEcBntRSHoPggx5OYaZbk4L9POhBHoVm40]--></g></svg>