<svg xmlns="http://www.w3.org/2000/svg" xmlns:xlink="http://www.w3.org/1999/xlink" contentStyleType="text/css" data-diagram-type="DESCRIPTION" height="300px" preserveAspectRatio="none" style="width:1001px;height:300px;background:#FFFFFF;" version="1.1" viewBox="0 0 1001 300" width="1001px" zoomAndPan="magnify"><defs/><g><!--cluster Kubernetes API--><g class="cluster" data-entity="Kubernetes API" data-source-line="3" data-uid="ent0002" id="cluster_Kubernetes API"><path d="M8.5,157.29 L131.8975,157.29 A3.75,3.75 0 0 1 134.3975,159.79 L141.3975,179.5869 L580.5,179.5869 A2.5,2.5 0 0 1 583,182.0869 L583,290.98 A2.5,2.5 0 0 1 580.5,293.48 L8.5,293.48 A2.5,2.5 0 0 1 6,290.98 L6,159.79 A2.5,2.5 0 0 1 8.5,157.29" fill="none" style="stroke:#000000;stroke-width:1.5;"/><line style="stroke:#000000;stroke-width:1.5;" x1="6" x2="141.3975" y1="179.5869" y2="179.5869"/><text fill="#000000" font-family="sans-serif" font-size="14" font-weight="bold" lengthAdjust="spacing" textLength="122.3975" x="10" y="172.2851">Kubernetes API</text></g><!--cluster Controllers--><g class="cluster" data-entity="Controllers" data-source-line="8" data-uid="ent0005" id="cluster_Controllers"><path d="M220.5,6 L308.9043,6 A3.75,3.75 0 0 1 311.4043,8.5 L318.4043,28.2969 L401.5,28.2969 A2.5,2.5 0 0 1 404,30.7969 L404,90.79 A2.5,2.5 0 0 1 401.5,93.29 L220.5,93.29 A2.5,2.5 0 0 1 218,90.79 L218,8.5 A2.5,2.5 0 0 1 220.5,6" fill="none" style="stroke:#000000;stroke-width:1.5;"/><line style="stroke:#000000;stroke-width:1.5;" x1="218" x2="318.4043" y1="28.2969" y2="28.2969"/><text fill="#000000" font-family="sans-serif" font-size="14" font-weight="bold" lengthAdjust="spacing" textLength="87.4043" x="222" y="20.9951">Controllers</text></g><!--cluster Runtime--><g class="cluster" data-entity="Runtime" data-source-line="12" data-uid="ent0007" id="cluster_Runtime"><path d="M609.5,6 L676.7881,6 A3.75,3.75 0 0 1 679.2881,8.5 L686.2881,28.2969 L991.5,28.2969 A2.5,2.5 0 0 1 994,30.7969 L994,274.68 A2.5,2.5 0 0 1 991.5,277.18 L609.5,277.18 A2.5,2.5 0 0 1 607,274.68 L607,8.5 A2.5,2.5 0 0 1 609.5,6" fill="none" style="stroke:#000000;stroke-width:1.5;"/><line style="stroke:#000000;stroke-width:1.5;" x1="607" x2="686.2881" y1="28.2969" y2="28.2969"/><text fill="#000000" font-family="sans-serif" font-size="14" font-weight="bold" lengthAdjust="spacing" textLength="66.2881" x="611" y="20.9951">Runtime</text></g><!--entity PageCRD--><g class="entity" data-entity="PageCRD" data-source-line="4" data-uid="ent0003" id="entity_PageCRD"><rect fill="#F1F1F1" height="85.1875" rx="2.5" ry="2.5" style="stroke:#181818;stroke-width:0.5;" width="265.3965" x="22.3" y="192.29"/><text fill="#000000" font-family="sans-serif" font-size="14" lengthAdjust="spacing" textLength="69.2549" x="32.3" y="215.2851">Page CRD</text><text fill="#000000" font-family="sans-serif" font-size="14" lengthAdjust="spacing" textLength="245.3965" x="32.3" y="231.582">spec: templateRef, slots, backends</text><text fill="#000000" font-family="sans-serif" font-size="14" lengthAdjust="spacing" textLength="205.8779" x="32.3" y="247.8789">status: effectiveExperiments,</text><text fill="#000000" font-family="sans-serif" font-size="14" lengthAdjust="spacing" textLength="193.0742" x="32.3" y="264.1757">resolvedDigests, conditions</text></g><!--entity ExpCRD--><g class="entity" data-entity="ExpCRD" data-source-line="5" data-uid="ent0004" id="entity_ExpCRD"><rect fill="#F1F1F1" height="85.1875" rx="2.5" ry="2.5" style="stroke:#181818;stroke-width:0.5;" width="243.8154" x="323.09" y="192.29"/><text fill="#000000" font-family="sans-serif" font-size="14" lengthAdjust="spacing" textLength="115.623" x="333.09" y="215.2851">Experiment CRD</text><text fill="#000000" font-family="sans-serif" font-size="14" lengthAdjust="spacing" textLength="200.9014" x="333.09" y="231.582">spec: assignment, targeting,</text><text fill="#000000" font-family="sans-serif" font-size="14" lengthAdjust="spacing" textLength="219.7275" x="333.09" y="247.8789">overrides(artifact refs), KPI refs</text><text fill="#000000" font-family="sans-serif" font-size="14" lengthAdjust="spacing" textLength="223.8154" x="333.09" y="264.1757">status: resolved, pinned digests</text></g><!--entity Op--><g class="entity" data-entity="Op" data-source-line="9" data-uid="ent0006" id="entity_Op"><rect fill="#F1F1F1" height="36.2969" rx="2.5" ry="2.5" style="stroke:#181818;stroke-width:0.5;" width="154.21" x="233.9" y="41"/><text fill="#000000" font-family="sans-serif" font-size="14" lengthAdjust="spacing" textLength="134.21" x="243.9" y="63.9951">Protopipe Operator</text></g><!--entity Comp--><g class="entity" data-entity="Comp" data-source-line="13" data-uid="ent0008" id="entity_Comp"><rect fill="#F1F1F1" height="36.2969" rx="2.5" ry="2.5" style="stroke:#181818;stroke-width:0.5;" width="181.1777" x="698.41" y="41"/><text fill="#000000" font-family="sans-serif" font-size="14" lengthAdjust="spacing" textLength="161.1777" x="708.41" y="63.9951">Composer Deployment</text></g><!--entity Reg--><g class="entity" data-entity="Reg" data-source-line="14" data-uid="ent0009" id="entity_Reg"><rect fill="#F1F1F1" height="52.5938" rx="2.5" ry="2.5" style="stroke:#181818;stroke-width:0.5;" width="139.9639" x="623.02" y="208.59"/><text fill="#000000" font-family="sans-serif" font-size="14" lengthAdjust="spacing" textLength="89.749" x="633.02" y="231.5851">RFA Registry</text><text fill="#000000" font-family="sans-serif" font-size="14" lengthAdjust="spacing" textLength="119.9639" x="633.02" y="247.882">(Artifact storage)</text></g><!--entity OW--><g class="entity" data-entity="OW" data-source-line="15" data-uid="ent0010" id="entity_OW"><rect fill="#F1F1F1" height="52.5938" rx="2.5" ry="2.5" style="stroke:#181818;stroke-width:0.5;" width="180.877" x="797.56" y="208.59"/><text fill="#000000" font-family="sans-serif" font-size="14" lengthAdjust="spacing" textLength="75.7627" x="807.56" y="231.5851">Overwatch</text><text fill="#000000" font-family="sans-serif" font-size="14" lengthAdjust="spacing" textLength="160.877" x="807.56" y="247.882">(OTel + Event Archive)</text></g><!--link Op to PageCRD--><g class="link" data-entity-1="Op" data-entity-2="PageCRD" data-source-line="18" data-uid="lnk11" id="link_Op_PageCRD"><path d="M245.98,77.76 C228.53,85.12 210.93,95.31 198,109.29 C177.02,131.97 167.4352,159.5064 161.9052,186.0164" fill="none" id="Op-to-PageCRD" style="stroke:#181818;stroke-width:1;"/><polygon fill="#181818" points="160.68,191.89,166.4336,183.8965,161.701,186.9954,158.6021,182.2628,160.68,191.89" style="stroke:#181818;stroke-width:1;"/><text fill="#000000" font-family="sans-serif" font-size="13" lengthAdjust="spacing" textLength="59.0522" x="250.0447" y="122.3569">reconcile</text><text fill="#000000" font-family="sans-serif" font-size="13" lengthAdjust="spacing" textLength="161.1416" x="199" y="137.4897">update status/conditions</text></g><!--link Op to ExpCRD--><g class="link" data-entity-1="Op" data-entity-2="ExpCRD" data-source-line="19" data-uid="lnk12" id="link_Op_ExpCRD"><path d="M335.14,77.73 C346.2,86.48 359.05,97.66 369,109.29 C390.58,134.51 407.0943,161.2841 420.8943,186.5541" fill="none" id="Op-to-ExpCRD" style="stroke:#181818;stroke-width:1;"/><polygon fill="#181818" points="423.77,191.82,422.967,182.0039,421.3735,187.4317,415.9458,185.8383,423.77,191.82" style="stroke:#181818;stroke-width:1;"/><text fill="#000000" font-family="sans-serif" font-size="13" lengthAdjust="spacing" textLength="59.0522" x="430.1007" y="122.3569">reconcile</text><text fill="#000000" font-family="sans-serif" font-size="13" lengthAdjust="spacing" textLength="131.0537" x="394.1" y="137.4897">pin digests in status</text></g><!--link Comp to Reg--><g class="link" data-entity-1="Comp" data-entity-2="Reg" data-source-line="20" data-uid="lnk13" id="link_Comp_Reg"><path d="M719.81,77.71 C704.51,84.94 690.14,95.09 681,109.29 C661.83,139.08 669.8699,175.8184 679.7399,202.6684" fill="none" id="Comp-to-Reg" style="stroke:#181818;stroke-width:1;"/><polygon fill="#181818" points="681.81,208.3,682.4592,198.4726,680.0849,203.607,674.9504,201.2328,681.81,208.3" style="stroke:#181818;stroke-width:1;"/><text fill="#000000" font-family="sans-serif" font-size="13" lengthAdjust="spacing" textLength="139.2041" x="682" y="122.3569">fetch templates/RFAs</text><text fill="#000000" font-family="sans-serif" font-size="13" lengthAdjust="spacing" textLength="119.8184" x="691.6929" y="137.4897">by resolved digest</text></g><!--link Comp to OW--><g class="link" data-entity-1="Comp" data-entity-2="OW" data-source-line="21" data-uid="lnk14" id="link_Comp_OW"><path d="M803.53,77.79 C810.71,86.91 819.26,98.39 826,109.29 C846.32,142.18 863.0101,177.1529 874.5101,202.8629" fill="none" id="Comp-to-OW" style="stroke:#181818;stroke-width:1;"/><polygon fill="#181818" points="876.96,208.34,876.9366,198.4912,874.9184,203.7758,869.6338,201.7577,876.96,208.34" style="stroke:#181818;stroke-width:1;"/><text fill="#000000" font-family="sans-serif" font-size="13" lengthAdjust="spacing" textLength="111.6807" x="844.11" y="129.8569">telemetry/events</text></g><!--SRC=[LL9DRzim3BtxLn0zjPYBt7ie42GTKFJWm2lGmxA38jEkK9aIH2PRCEo_ZxJhfhq9qdjy7nI_1Sgkk15y6dCY9FaXvuXGq8kZ8M9LPUVVt81mzNGyO24KP5Zl7g_WRmNmSsTFctQx9yxexq1mpD49jjZNm349rt3G2KWTAqQS7FaEiEzL89pmuK_64aRLvNfF1Jd54tRRC20RqoVgWeH4_0iSWucfbkbUY9_L7NCOo6vh45S6b4233audB2LqoDUkIEYT5qtOyqqDJxl7wNZnjfYe8GSYxA2RtKmELDOC_FjKooQHb1GZ5buwAKbI3XcXKPDEKfcuJVx2Quya6k2Tix7-6GjiCSTqjWWJoUxjlVs-XXQ7m5BEUxfUBp5Of-kucmci0CCsclQt4_-gmEOP8to3XvCrjIx-LKkVmSsBsMaotDxUBys2nTVIVOYufsFkT9Cm5xEwx68XpMLyvMXdIs6WnvbRMOg9eWuLtwEQ-_WglD9mke33-QFxzn4NNlC2zhSYZgW5hD3YSFKV]--></g></svg>