<svg xmlns="http://www.w3.org/2000/svg" xmlns:xlink="http://www.w3.org/1999/xlink" contentStyleType="text/css" data-diagram-type="DESCRIPTION" height="887px" preserveAspectRatio="none" style="width:426px;height:887px;background:#FFFFFF;" version="1.1" viewBox="0 0 426 887" width="426px" zoomAndPan="magnify"><?plantuml 1.2026.6?><defs/><g><!--entity Dev--><g class="entity" data-qualified-name="Dev" data-source-line="4" id="ent0001"><rect fill="#F1F1F1" height="36.2969" rx="2.5" ry="2.5" style="stroke:#181818;stroke-width:0.5;" width="47.6787" x="285.99" y="7"/><text fill="#000000" font-family="sans-serif" font-size="14" lengthAdjust="spacing" textLength="27.6787" x="295.99" y="29.9951">Dev</text></g><!--entity MR--><g class="entity" data-qualified-name="MR" data-source-line="5" id="ent0002"><rect fill="#F1F1F1" height="52.5938" rx="2.5" ry="2.5" style="stroke:#181818;stroke-width:0.5;" width="138.7334" x="240.46" y="94.86"/><text fill="#000000" font-family="sans-serif" font-size="14" lengthAdjust="spacing" textLength="71.75" x="250.46" y="117.8551">GitLab MR</text><text fill="#000000" font-family="sans-serif" font-size="14" lengthAdjust="spacing" textLength="118.7334" x="250.46" y="134.152">(Feature Branch)</text></g><!--entity CI--><g class="entity" data-qualified-name="CI" data-source-line="6" id="ent0003"><rect fill="#F1F1F1" height="52.5938" rx="2.5" ry="2.5" style="stroke:#181818;stroke-width:0.5;" width="205.6709" x="207" y="494.86"/><text fill="#000000" font-family="sans-serif" font-size="14" lengthAdjust="spacing" textLength="73.4521" x="217" y="517.8551">CI Pipeline</text><text fill="#000000" font-family="sans-serif" font-size="14" lengthAdjust="spacing" textLength="185.6709" x="217" y="534.152">(build/test/cdct/storybook)</text></g><!--entity AR--><g class="entity" data-qualified-name="AR" data-source-line="7" id="ent0004"><rect fill="#F1F1F1" height="52.5938" rx="2.5" ry="2.5" style="stroke:#181818;stroke-width:0.5;" width="151.1748" x="234.24" y="613.86"/><text fill="#000000" font-family="sans-serif" font-size="14" lengthAdjust="spacing" textLength="113.7979" x="244.24" y="636.8551">Artifact Registry</text><text fill="#000000" font-family="sans-serif" font-size="14" lengthAdjust="spacing" textLength="131.1748" x="244.24" y="653.152">(Snapshot digests)</text></g><!--entity EXP--><g class="entity" data-qualified-name="EXP" data-source-line="8" id="ent0005"><rect fill="#F1F1F1" height="52.5938" rx="2.5" ry="2.5" style="stroke:#181818;stroke-width:0.5;" width="135.623" x="242.02" y="820.86"/><text fill="#000000" font-family="sans-serif" font-size="14" lengthAdjust="spacing" textLength="115.623" x="252.02" y="843.8551">Experiment CRD</text><text fill="#000000" font-family="sans-serif" font-size="14" lengthAdjust="spacing" textLength="112.5059" x="252.02" y="860.152">(treatment refs)</text></g><!--entity COMP--><g class="entity" data-qualified-name="COMP" data-source-line="9" id="ent0006"><rect fill="#F1F1F1" height="52.5938" rx="2.5" ry="2.5" style="stroke:#181818;stroke-width:0.5;" width="117.8018" x="250.93" y="182.86"/><text fill="#000000" font-family="sans-serif" font-size="14" lengthAdjust="spacing" textLength="71.0938" x="260.93" y="205.8551">Composer</text><text fill="#000000" font-family="sans-serif" font-size="14" lengthAdjust="spacing" textLength="97.8018" x="260.93" y="222.152">(prod routing)</text></g><!--entity COCK--><g class="entity" data-qualified-name="COCK" data-source-line="10" id="ent0007"><rect fill="#F1F1F1" height="52.5938" rx="2.5" ry="2.5" style="stroke:#181818;stroke-width:0.5;" width="122.5117" x="248.58" y="286.86"/><text fill="#000000" font-family="sans-serif" font-size="14" lengthAdjust="spacing" textLength="52.4111" x="258.58" y="309.8551">Cockpit</text><text fill="#000000" font-family="sans-serif" font-size="14" lengthAdjust="spacing" textLength="102.5117" x="258.58" y="326.152">(KPI/Exposure)</text></g><!--entity MERGE--><g class="entity" data-qualified-name="MERGE" data-source-line="11" id="ent0008"><rect fill="#F1F1F1" height="52.5938" rx="2.5" ry="2.5" style="stroke:#181818;stroke-width:0.5;" width="130.8926" x="244.38" y="390.86"/><text fill="#000000" font-family="sans-serif" font-size="14" lengthAdjust="spacing" textLength="43.9482" x="254.38" y="413.8551">Merge</text><text fill="#000000" font-family="sans-serif" font-size="14" lengthAdjust="spacing" textLength="110.8926" x="254.38" y="430.152">(DoD complete)</text></g><!--entity GC--><g class="entity" data-qualified-name="GC" data-source-line="12" id="ent0009"><rect fill="#F1F1F1" height="52.5938" rx="2.5" ry="2.5" style="stroke:#181818;stroke-width:0.5;" width="114.6709" x="252.5" y="732.86"/><text fill="#000000" font-family="sans-serif" font-size="14" lengthAdjust="spacing" textLength="20.624" x="262.5" y="755.8551">GC</text><text fill="#000000" font-family="sans-serif" font-size="14" lengthAdjust="spacing" textLength="94.6709" x="262.5" y="772.152">(retention/ttl)</text></g><!--link Dev to MR--><g class="link" data-entity-1="ent0001" data-entity-2="ent0002" data-link-type="dependency" data-source-line="14" id="lnk10"><path d="M309.83,43.55 C309.83,57.96 309.83,73.21 309.83,89.41" fill="none" id="Dev-to-MR" style="stroke:#181818;stroke-width:1;"/><polygon fill="#181818" points="309.83,94.41,313.83,85.41,309.83,89.41,305.83,85.41,309.83,94.41" style="stroke:#181818;stroke-width:1;stroke-linejoin:miter;stroke-miterlimit:10;"/><text fill="#000000" font-family="sans-serif" font-size="13" lengthAdjust="spacing" textLength="91.5459" x="252.83" y="73.6469">push commits</text></g><!--link MR to CI--><g class="link" data-entity-1="ent0002" data-entity-2="ent0003" data-link-type="dependency" data-source-line="15" id="lnk11"><path d="M240.05,145.97 C228.52,151.46 217.06,157.86 207,165.15 C136.33,216.36 108.17,230.99 77.38,312.65 C45.26,397.87 150.7991,459.1062 230.3191,492.4562" fill="none" id="MR-to-CI" style="stroke:#181818;stroke-width:1;"/><polygon fill="#181818" points="234.93,494.39,228.1774,487.2205,230.3191,492.4562,225.0833,494.5979,234.93,494.39" style="stroke:#181818;stroke-width:1;stroke-linejoin:miter;stroke-miterlimit:10;"/><text fill="#000000" font-family="sans-serif" font-size="13" lengthAdjust="spacing" textLength="99.6074" x="42" y="325.7169">pipeline trigger</text></g><!--link CI to AR--><g class="link" data-entity-1="ent0003" data-entity-2="ent0004" data-link-type="dependency" data-source-line="16" id="lnk12"><path d="M309.83,547.77 C309.83,567.35 309.83,588.85 309.83,608.45" fill="none" id="CI-to-AR" style="stroke:#181818;stroke-width:1;"/><polygon fill="#181818" points="309.83,613.45,313.83,604.45,309.83,608.45,305.83,604.45,309.83,613.45" style="stroke:#181818;stroke-width:1;stroke-linejoin:miter;stroke-miterlimit:10;"/><text fill="#000000" font-family="sans-serif" font-size="13" lengthAdjust="spacing" textLength="110.4048" x="235.8092" y="577.7169">publish snapshot</text><text fill="#000000" font-family="sans-serif" font-size="13" lengthAdjust="spacing" textLength="124.3633" x="228.83" y="592.8497">(immutable digest)</text></g><!--link COCK to EXP--><g class="link" data-entity-1="ent0007" data-entity-2="ent0005" data-link-type="dependency" data-source-line="17" id="lnk13"><path d="M252.24,339.82 C236.38,348.92 219.99,360.14 207,373.15 C18.49,561.91 12.88,631.56 42.38,688.15 C82.27,764.67 171.7706,806.047 237.0106,827.517" fill="none" id="COCK-to-EXP" style="stroke:#181818;stroke-width:1;"/><polygon fill="#181818" points="241.76,829.08,234.4614,822.4671,237.0106,827.517,231.9606,830.0661,241.76,829.08" style="stroke:#181818;stroke-width:1;stroke-linejoin:miter;stroke-miterlimit:10;"/><text fill="#000000" font-family="sans-serif" font-size="13" lengthAdjust="spacing" textLength="169.8887" x="7" y="669.2169">define/update experiment</text><text fill="#000000" font-family="sans-serif" font-size="13" lengthAdjust="spacing" textLength="144.041" x="19.9238" y="684.3497">(pinned user optional)</text></g><!--link EXP to COMP--><g class="link" data-entity-1="ent0005" data-entity-2="ent0006" data-link-type="dependency" data-source-line="18" id="lnk14"><path d="M241.59,825.07 C229.26,819.17 217.12,811.93 207,803.15 C115.77,724.08 48.09,684.7 73.38,566.65 C103.75,424.92 110.08,376.93 207,269.15 C219.09,255.7 230.5984,246.9374 246.2084,237.9374" fill="none" id="EXP-to-COMP" style="stroke:#181818;stroke-width:1;"/><polygon fill="#181818" points="250.54,235.44,240.7452,236.47,246.2084,237.9374,244.741,243.4006,250.54,235.44" style="stroke:#181818;stroke-width:1;stroke-linejoin:miter;stroke-miterlimit:10;"/><text fill="#000000" font-family="sans-serif" font-size="13" lengthAdjust="spacing" textLength="107.5674" x="38" y="579.7169">effective routing</text></g><!--link COMP to COCK--><g class="link" data-entity-1="ent0006" data-entity-2="ent0007" data-link-type="dependency" data-source-line="19" id="lnk15"><path d="M309.83,235.84 C309.83,251.36 309.83,265.84 309.83,281.37" fill="none" id="COMP-to-COCK" style="stroke:#181818;stroke-width:1;"/><polygon fill="#181818" points="309.83,286.37,313.83,277.37,309.83,281.37,305.83,277.37,309.83,286.37" style="stroke:#181818;stroke-width:1;stroke-linejoin:miter;stroke-miterlimit:10;"/><text fill="#000000" font-family="sans-serif" font-size="13" lengthAdjust="spacing" textLength="106.3804" x="245.33" y="265.7169">exposure + KPIs</text></g><!--link COCK to MERGE--><g class="link" data-entity-1="ent0007" data-entity-2="ent0008" data-link-type="dependency" data-source-line="20" id="lnk16"><path d="M309.83,339.84 C309.83,355.36 309.83,369.84 309.83,385.37" fill="none" id="COCK-to-MERGE" style="stroke:#181818;stroke-width:1;"/><polygon fill="#181818" points="309.83,390.37,313.83,381.37,309.83,385.37,305.83,381.37,309.83,390.37" style="stroke:#181818;stroke-width:1;stroke-linejoin:miter;stroke-miterlimit:10;"/><text fill="#000000" font-family="sans-serif" font-size="13" lengthAdjust="spacing" textLength="163.998" x="216.83" y="369.7169">decision: promote/merge</text></g><!--link MERGE to CI--><g class="link" data-entity-1="ent0008" data-entity-2="ent0003" data-link-type="dependency" data-source-line="21" id="lnk17"><path d="M309.83,443.84 C309.83,459.36 309.83,473.84 309.83,489.37" fill="none" id="MERGE-to-CI" style="stroke:#181818;stroke-width:1;"/><polygon fill="#181818" points="309.83,494.37,313.83,485.37,309.83,489.37,305.83,485.37,309.83,494.37" style="stroke:#181818;stroke-width:1;stroke-linejoin:miter;stroke-miterlimit:10;"/><text fill="#000000" font-family="sans-serif" font-size="13" lengthAdjust="spacing" textLength="103.397" x="246.83" y="473.7169">release pipeline</text></g><!--link AR to GC--><g class="link" data-entity-1="ent0004" data-entity-2="ent0009" data-link-type="dependency" data-source-line="22" id="lnk18"><path d="M309.83,666.77 C309.83,686.35 309.83,707.85 309.83,727.45" fill="none" id="AR-to-GC" style="stroke:#181818;stroke-width:1;"/><polygon fill="#181818" points="309.83,732.45,313.83,723.45,309.83,727.45,305.83,723.45,309.83,732.45" style="stroke:#181818;stroke-width:1;stroke-linejoin:miter;stroke-miterlimit:10;"/><text fill="#000000" font-family="sans-serif" font-size="13" lengthAdjust="spacing" textLength="132.4629" x="224.83" y="696.7169">delete unreferenced</text><text fill="#000000" font-family="sans-serif" font-size="13" lengthAdjust="spacing" textLength="128.4385" x="226.8422" y="711.8497">snapshots after TTL</text></g><?plantuml-src NP8nR-Cm38Lt_GgYqmL5uRt30Jad3OBMkC3jqA6BRDEE45aIABgu_FkZP2T8EWKctoEVFYQUZ0kQz0Yj7uDtwFYTpnQ1i6Nj1elAOi_07iWCHuREf8xnJgch11us-Fq0EeBytfPtXjzq0rNzvNwzeEQ94FwGTkrnbULLVQikzt0m0QrnAFfcChOh62CNRTTo4TdJkV7-D5lB_QrrJMnwtJBKE9Z8T9O1xqw7UFGfyY1JuknRtwtS_Wj8PfHNGrblnCGaCVCtORzOjf-7kvW9L4GITI3V0Vc9ZHkMM7-h7-Bs50oBzlMmBsITZmBXeYrVRxKLqf1Ull6RV0sBl2YhRRtRte4jHKVIT-aK1RETXRjIARa1FFqMjl0COOh7D6iq79LKf2wKfRvm1fQh3aXAgj9Rpvx66h75XPziCkCuiMvayynofLBsv10sOkcmbs7553hD27Y5cX0Pvx23IO213ocjjYkLR2cBq18xzdtwJttZXQNAZIoGDSzfOkO6Zo0OutLxvfBtjoRAQ0bFVlICnPXOghb_UJIXHHtn-dYrpa1sPPwGQCFavEn8w5hiljo5G0JTi-J_-7Zx3m00?></g></svg>